<svg width="248" height="167" viewBox="0 0 248 167" fill="none" xmlns="http://www.w3.org/2000/svg">
<path fill-rule="evenodd" clip-rule="evenodd" d="M42.4121 135.402C44.8848 135.402 47.3069 135.186 49.6604 134.77C55.1477 151.211 70.6654 163.062 88.9512 163.062C100.767 163.062 111.427 158.114 118.972 150.177C126.531 160.182 138.527 166.648 152.034 166.648C169.29 166.648 184.08 156.095 190.303 141.09C194.983 142.924 200.079 143.932 205.409 143.932C228.28 143.932 246.821 125.391 246.821 102.52C246.821 81.7178 231.484 64.4983 211.501 61.5523C211.56 60.6486 211.59 59.737 211.59 58.8184C211.59 35.9471 193.049 17.4062 170.178 17.4062C162.15 17.4062 154.655 19.6907 148.308 23.6451C141.464 10.2055 127.499 1 111.383 1C96.3569 1 83.2001 9.00259 75.9419 20.9782C70.8358 18.7267 65.1889 17.4766 59.25 17.4766C36.3787 17.4766 17.8379 36.0174 17.8379 58.8887C17.8379 59.4712 17.8499 60.051 17.8737 60.6277C7.63969 68.1676 1 80.3035 1 93.9902C1 116.862 19.5408 135.402 42.4121 135.402Z" fill="#D2E2FF"/>
<path d="M49.6604 134.77L49.8975 134.691L49.8293 134.486L49.6169 134.524L49.6604 134.77ZM118.972 150.177L119.171 150.026L118.993 149.791L118.79 150.004L118.972 150.177ZM190.303 141.09L190.394 140.857L190.166 140.768L190.072 140.994L190.303 141.09ZM211.501 61.5523L211.252 61.5361L211.237 61.7661L211.465 61.7997L211.501 61.5523ZM148.308 23.6451L148.086 23.7586L148.209 24.0014L148.441 23.8573L148.308 23.6451ZM75.9419 20.9782L75.8411 21.2069L76.042 21.2955L76.1557 21.1078L75.9419 20.9782ZM17.8737 60.6277L18.022 60.829L18.129 60.7502L18.1235 60.6174L17.8737 60.6277ZM49.6169 134.524C47.2777 134.937 44.8702 135.152 42.4121 135.152V135.652C44.8994 135.652 47.3361 135.434 49.7038 135.016L49.6169 134.524ZM88.9512 162.812C70.7762 162.812 55.3518 151.033 49.8975 134.691L49.4232 134.849C54.9436 151.389 70.5546 163.312 88.9512 163.312V162.812ZM118.79 150.004C111.291 157.894 100.696 162.812 88.9512 162.812V163.312C100.838 163.312 111.563 158.334 119.153 150.349L118.79 150.004ZM152.034 166.398C138.609 166.398 126.685 159.972 119.171 150.026L118.772 150.327C126.377 160.393 138.446 166.898 152.034 166.898V166.398ZM190.072 140.994C183.887 155.909 169.185 166.398 152.034 166.398V166.898C169.394 166.898 184.274 156.281 190.534 141.186L190.072 140.994ZM205.409 143.682C200.11 143.682 195.046 142.681 190.394 140.857L190.212 141.323C194.921 143.168 200.047 144.182 205.409 144.182V143.682ZM246.571 102.52C246.571 125.253 228.142 143.682 205.409 143.682V144.182C228.419 144.182 247.071 125.529 247.071 102.52H246.571ZM211.465 61.7997C231.327 64.7278 246.571 81.8436 246.571 102.52H247.071C247.071 81.592 231.641 64.2688 211.537 61.305L211.465 61.7997ZM211.34 58.8184C211.34 59.7316 211.31 60.6378 211.252 61.5361L211.751 61.5686C211.81 60.6595 211.84 59.7424 211.84 58.8184H211.34ZM170.178 17.6562C192.911 17.6562 211.34 36.0852 211.34 58.8184H211.84C211.84 35.809 193.187 17.1562 170.178 17.1562V17.6562ZM148.441 23.8573C154.749 19.9269 162.198 17.6562 170.178 17.6562V17.1562C162.101 17.1562 154.561 19.4546 148.176 23.4329L148.441 23.8573ZM111.383 1.25C127.401 1.25 141.282 10.3995 148.086 23.7586L148.531 23.5317C141.646 10.0116 127.596 0.75 111.383 0.75V1.25ZM76.1557 21.1078C83.3705 9.20381 96.4479 1.25 111.383 1.25V0.75C96.2659 0.75 83.0297 8.80136 75.7281 20.8486L76.1557 21.1078ZM59.25 17.7266C65.1535 17.7266 70.7661 18.9692 75.8411 21.2069L76.0428 20.7494C70.9055 18.4842 65.2243 17.2266 59.25 17.2266V17.7266ZM18.0879 58.8887C18.0879 36.1555 36.5168 17.7266 59.25 17.7266V17.2266C36.2407 17.2266 17.5879 35.8793 17.5879 58.8887H18.0879ZM18.1235 60.6174C18.0998 60.0441 18.0879 59.4678 18.0879 58.8887H17.5879C17.5879 59.4747 17.6 60.0579 17.624 60.638L18.1235 60.6174ZM1.25 93.9902C1.25 80.3863 7.84918 68.3237 18.022 60.829L17.7255 60.4264C7.4302 68.0114 0.75 80.2207 0.75 93.9902H1.25ZM42.4121 135.152C19.6789 135.152 1.25 116.723 1.25 93.9902H0.75C0.75 117 19.4028 135.652 42.4121 135.652V135.152Z" fill="#3E3E3E"/>
</svg>
