<svg width="24" height="24" viewBox="0 0 24 24" fill="none" xmlns="http://www.w3.org/2000/svg">
<path d="M8.5 17C8.91667 17 9.271 16.854 9.563 16.562C9.855 16.27 10.0007 15.916 10 15.5C10 15.0833 9.854 14.729 9.562 14.437C9.27 14.145 8.916 13.9993 8.5 14C8.08334 14 7.729 14.146 7.437 14.438C7.145 14.73 6.99934 15.084 7 15.5C7 15.9167 7.146 16.271 7.438 16.563C7.73 16.855 8.084 17.0007 8.5 17ZM8.5 10C8.91667 10 9.271 9.854 9.563 9.562C9.855 9.27 10.0007 8.916 10 8.5C10 8.08334 9.854 7.729 9.562 7.437C9.27 7.145 8.916 6.99934 8.5 7C8.08334 7 7.729 7.146 7.437 7.438C7.145 7.73 6.99934 8.084 7 8.5C7 8.91667 7.146 9.271 7.438 9.563C7.73 9.855 8.084 10.0007 8.5 10ZM15.5 17C15.9167 17 16.271 16.854 16.563 16.562C16.855 16.27 17.0007 15.916 17 15.5C17 15.0833 16.854 14.729 16.562 14.437C16.27 14.145 15.916 13.9993 15.5 14C15.0833 14 14.729 14.146 14.437 14.438C14.145 14.73 13.9993 15.084 14 15.5C14 15.9167 14.146 16.271 14.438 16.563C14.73 16.855 15.084 17.0007 15.5 17ZM15.5 10C15.9167 10 16.271 9.854 16.563 9.562C16.855 9.27 17.0007 8.916 17 8.5C17 8.08334 16.854 7.729 16.562 7.437C16.27 7.145 15.916 6.99934 15.5 7C15.0833 7 14.729 7.146 14.437 7.438C14.145 7.73 13.9993 8.084 14 8.5C14 8.91667 14.146 9.271 14.438 9.563C14.73 9.855 15.084 10.0007 15.5 10ZM5 21C4.45 21 3.979 20.804 3.587 20.412C3.195 20.02 2.99934 19.5493 3 19V5C3 4.45 3.196 3.979 3.588 3.587C3.98 3.195 4.45067 2.99934 5 3H19C19.55 3 20.021 3.196 20.413 3.588C20.805 3.98 21.0007 4.45067 21 5V19C21 19.55 20.804 20.021 20.412 20.413C20.02 20.805 19.5493 21.0007 19 21H5ZM5 19H19V5H5V19Z" fill="#007AFF"/>
</svg>
