<svg width="24" height="24" viewBox="0 0 24 24" fill="none" xmlns="http://www.w3.org/2000/svg">
<path d="M6.81007 2C3.04897 2 0 5.03826 0 8.78615C0 12.5428 1.5078 14.423 7.81902 19.3145L10.7187 21.5619C11.4724 22.146 12.5276 22.146 13.2813 21.5619L16.181 19.3145C22.4922 14.423 24 12.5428 24 8.78615C24 5.03826 20.951 2 17.1899 2C15.2371 2 13.4983 2.88423 12 4.58554C10.5017 2.88423 8.76295 2 6.81007 2ZM6.81007 4.07963C8.3953 4.07963 9.82422 4.97129 11.1418 6.86981L11.3563 7.17898C11.6022 7.53323 12.0896 7.62181 12.4451 7.37684C12.5227 7.32335 12.59 7.25632 12.6437 7.17898L12.8582 6.86981C14.1758 4.97129 15.6047 4.07963 17.1899 4.07963C19.7984 4.07963 21.913 6.18681 21.913 8.78615C21.913 11.6771 20.7261 13.1572 14.8997 17.673L12 19.9204L9.10029 17.673C3.27387 13.1572 2.08696 11.6771 2.08696 8.78615C2.08696 6.18681 4.20157 4.07963 6.81007 4.07963Z" fill="#3E3E3E"/>
</svg>
