<svg width="24" height="24" viewBox="0 0 24 24" fill="none" xmlns="http://www.w3.org/2000/svg">
<path d="M21.6643 14.184C22.4566 13.9035 23.2206 14.6663 22.9412 15.459C22.3725 17.0725 21.4959 18.5046 20.3094 19.6869C15.8917 24.1047 8.73123 24.104 4.31417 19.6871C-0.104688 15.2708 -0.104688 8.10863 4.31396 3.69035C5.49831 2.50598 6.93085 1.62881 8.54101 1.05922C9.33384 0.778755 10.0977 1.54276 9.81708 2.33554C8.62341 5.70778 9.42333 9.46858 11.9772 12.0242C14.531 14.5775 18.2938 15.3777 21.6643 14.184ZM10.5631 13.4383C7.98724 10.8607 6.87865 7.27643 7.40063 3.79554C6.79096 4.16499 6.23116 4.60131 5.72802 5.10446C2.09046 8.74173 2.09046 14.6373 5.72804 18.2728C9.36438 21.909 15.2586 21.9096 18.8966 18.2715C19.4008 17.7691 19.8374 17.2099 20.2066 16.6002C16.7256 17.1227 13.1393 16.014 10.5631 13.4383Z" fill="#007AFF"/>
</svg>
