<svg width="24" height="24" viewBox="0 0 24 24" fill="none" xmlns="http://www.w3.org/2000/svg">
<g clip-path="url(#clip0_190218_4)">
<path fill-rule="evenodd" clip-rule="evenodd" d="M24 12C24 8.8174 22.7357 5.76515 20.4853 3.51472C18.2348 1.26428 15.1826 0 12 0C8.8174 0 5.76515 1.26428 3.51472 3.51472C1.26428 5.76515 0 8.8174 0 12C0 15.1826 1.26428 18.2348 3.51472 20.4853C5.76515 22.7357 8.8174 24 12 24C15.1826 24 18.2348 22.7357 20.4853 20.4853C22.7357 18.2348 24 15.1826 24 12ZM16.3011 15.1491C16.3373 15.0128 16.4 14.8849 16.4856 14.7728C16.5713 14.6607 16.6783 14.5667 16.8004 14.496C16.9225 14.4254 17.0574 14.3796 17.1972 14.3612C17.3371 14.3428 17.4792 14.3522 17.6154 14.3889C17.7516 14.4256 17.8793 14.4888 17.991 14.5749C18.1027 14.6611 18.1963 14.7684 18.2665 14.8908C18.3366 15.0132 18.3819 15.1483 18.3997 15.2882C18.4175 15.4281 18.4075 15.5702 18.3703 15.7063C17.9906 17.1048 17.1612 18.3395 16.01 19.2198C14.8589 20.1001 13.45 20.577 12.0009 20.577C10.5517 20.577 9.14284 20.1001 7.99169 19.2198C6.84055 18.3395 6.01112 17.1048 5.63143 15.7063C5.55886 15.4323 5.59779 15.1408 5.73969 14.8955C5.88159 14.6501 6.11491 14.471 6.38856 14.3974C6.66222 14.3237 6.95392 14.3614 7.19982 14.5023C7.44571 14.6432 7.62577 14.8758 7.70057 15.1491C7.95772 16.0926 8.51801 16.9254 9.2951 17.519C10.0722 18.1126 11.023 18.4343 12.0009 18.4343C12.9788 18.4343 13.9295 18.1126 14.7066 17.519C15.4837 16.9254 16.044 16.0926 16.3011 15.1491ZM17.2337 6.672C18.936 4.58571 20.7309 6.06857 20.7549 7.66629C20.7549 10.0474 17.9091 12 17.2354 12C16.5617 12 13.7143 10.0457 13.7143 7.668C13.7383 6.06857 15.5331 4.584 17.2337 6.672ZM3.24514 7.66629C3.26914 6.06857 5.064 4.58571 6.76457 6.672C8.46686 4.58571 10.2617 6.06857 10.2857 7.66629C10.2857 10.0491 7.44 12 6.76457 12C6.09257 12 3.24514 10.044 3.24514 7.66629Z" fill="#007AFF"/>
</g>
<defs>
<clipPath id="clip0_190218_4">
<rect width="24" height="24" fill="white"/>
</clipPath>
</defs>
</svg>
