<svg aria-hidden="true" style="position: absolute; width: 0; height: 0; overflow: hidden;" version="1.1" xmlns="http://www.w3.org/2000/svg" xmlns:xlink="http://www.w3.org/1999/xlink">
<defs>
<symbol id="chevron" viewBox="0 0 19 32">
<path fill="#007aff" style="fill: var(--color1, #007aff)" d="M0.977 16.011c0.009-0.31 0.071-0.593 0.186-0.85s0.292-0.505 0.531-0.744l13.308-12.883c0.381-0.381 0.85-0.571 1.408-0.571 0.372 0 0.708 0.089 1.009 0.266 0.31 0.177 0.553 0.416 0.731 0.717 0.186 0.301 0.279 0.637 0.279 1.009 0 0.549-0.208 1.032-0.624 1.448l-12.033 11.595 12.033 11.608c0.416 0.425 0.624 0.908 0.624 1.448 0 0.381-0.093 0.722-0.279 1.023-0.177 0.301-0.421 0.54-0.731 0.717-0.301 0.186-0.637 0.279-1.009 0.279-0.558 0-1.027-0.195-1.408-0.584l-13.308-12.883c-0.248-0.239-0.429-0.487-0.545-0.744-0.115-0.266-0.173-0.549-0.173-0.85z"></path>
</symbol>
<symbol id="heart" viewBox="0 0 32 32">
<path d="M9.080 2.667c-5.015 0-9.080 4.051-9.080 9.048 0 5.009 2.010 7.516 10.425 14.038l3.866 2.997c1.005 0.779 2.412 0.779 3.417 0l3.866-2.997c8.415-6.522 10.425-9.029 10.425-14.038 0-4.997-4.065-9.048-9.080-9.048-2.604 0-4.922 1.179-6.92 3.447-1.998-2.268-4.316-3.447-6.92-3.447zM9.080 5.439c2.114 0 4.019 1.189 5.776 3.72l0.286 0.412c0.328 0.472 0.978 0.59 1.452 0.264 0.103-0.071 0.193-0.161 0.265-0.264l0.286-0.412c1.757-2.531 3.662-3.72 5.776-3.72 3.478 0 6.297 2.81 6.297 6.275 0 3.855-1.583 5.828-9.351 11.849l-3.866 2.997-3.866-2.997c-7.769-6.021-9.351-7.995-9.351-11.849 0-3.466 2.819-6.275 6.297-6.275z"></path>
</symbol>
<symbol id="moon" viewBox="0 0 32 32">
<path   d="M28.886 18.912c1.056-0.374 2.075 0.643 1.703 1.7-0.758 2.151-1.927 4.061-3.509 5.637-5.89 5.89-15.438 5.889-21.327 0-5.892-5.888-5.892-15.438-0-21.329 1.579-1.579 3.489-2.749 5.636-3.508 1.057-0.374 2.076 0.645 1.701 1.702-1.592 4.496-0.525 9.511 2.88 12.918 3.405 3.404 8.422 4.471 12.916 2.88zM14.084 17.918c-3.434-3.437-4.913-8.216-4.217-12.857-0.813 0.493-1.559 1.074-2.23 1.745-4.85 4.85-4.85 12.71 0 17.558 4.848 4.848 12.707 4.849 17.558-0.002 0.672-0.67 1.254-1.415 1.747-2.228-4.641 0.697-9.423-0.782-12.858-4.216z"></path>
</symbol>
</defs>
</svg>
