<svg width="184" height="184" viewBox="0 0 184 184" fill="none" xmlns="http://www.w3.org/2000/svg">
<path fill-rule="evenodd" clip-rule="evenodd" d="M62.1928 41.2939C53.7995 30.0085 56.1572 15.2979 59.2523 7.79514C61.9747 26.0915 63.9796 26.5866 69.6796 27.9944C73.287 28.8853 78.3745 30.1417 86.0604 36.5074C80.9593 21.7022 89.757 7.79995 96.0132 1.78417C91.1505 19.6313 92.7872 20.8907 97.4404 24.4712C99.9439 26.3976 103.321 28.9958 107.028 35.2107C109.073 21.2964 121.142 12.5619 128.636 9.44529C117.623 24.3078 118.691 26.0756 121.726 31.1015C123.647 34.2819 126.355 38.767 127.289 48.7004C134.151 34.6257 150.202 31.0165 158.879 31.1864C142.821 40.3678 143.087 42.4157 143.846 48.2378C144.254 51.3702 144.805 55.5952 143.031 62.6115C154.317 54.2182 169.027 56.5759 176.53 59.671C158.234 62.3934 157.739 64.3983 156.331 70.0983C155.44 73.7061 154.183 78.7942 147.816 86.4814C162.622 81.3796 176.524 90.1775 182.54 96.4338C164.693 91.5711 163.434 93.2078 159.853 97.861C157.927 100.365 155.328 103.742 149.112 107.449C163.027 109.494 171.762 121.563 174.879 129.057C160.016 118.045 158.249 119.112 153.223 122.147C150.043 124.068 145.558 126.776 135.627 127.71C149.698 134.574 153.306 150.621 153.136 159.298C143.954 143.239 141.907 143.506 136.085 144.265C132.952 144.673 128.726 145.223 121.709 143.45C130.104 154.735 127.747 169.447 124.651 176.951C121.929 158.654 119.924 158.159 114.224 156.752C110.617 155.861 105.53 154.604 97.8442 148.239C102.943 163.044 94.1462 176.944 87.8904 182.96C92.7532 165.113 91.1165 163.853 86.4633 160.273C83.9598 158.346 80.5832 155.748 76.8758 149.533C74.8303 163.448 62.7617 172.182 55.2681 175.299C66.2805 160.436 65.2129 158.668 62.1778 153.642C60.2571 150.462 57.5485 145.976 56.6147 136.042C49.7524 150.117 33.702 153.726 25.0248 153.556C41.0831 144.374 40.8163 142.327 40.0578 136.504C39.6497 133.372 39.0993 129.148 40.8719 122.133C29.5866 130.526 14.8762 128.168 7.37351 125.073C25.6699 122.351 26.165 120.346 27.5727 114.646C28.4636 111.038 29.72 105.951 36.0853 98.2653C21.2806 103.365 7.37914 94.568 1.36356 88.3121C19.2107 93.1748 20.4701 91.5381 24.0506 86.8849C25.9771 84.3812 28.5755 81.0043 34.7912 77.2966C20.8762 75.2517 12.1414 63.1826 9.02472 55.6887C23.8872 66.7011 25.655 65.6336 30.681 62.5985C33.8614 60.6778 38.3465 57.9693 48.28 57.0354C34.2067 50.1728 30.5978 34.1232 30.7677 25.4463C39.9491 41.5046 41.997 41.2378 47.8191 40.4793C50.9515 40.0711 55.1765 39.5207 62.1928 41.2939Z" fill="#FFD500"/>
<path d="M62.1928 41.2939L62.1315 41.5362L62.8126 41.7084L62.3934 41.1447L62.1928 41.2939ZM59.2523 7.79514L59.4996 7.75834L59.3664 6.86308L59.0212 7.6998L59.2523 7.79514ZM69.6796 27.9944L69.7396 27.7517L69.6796 27.9944ZM86.0604 36.5074L85.901 36.6999L86.587 37.268L86.2968 36.4259L86.0604 36.5074ZM96.0132 1.78417L96.2544 1.84989L96.4923 0.976605L95.8399 1.60396L96.0132 1.78417ZM97.4404 24.4712L97.5928 24.2731L97.4404 24.4712ZM107.028 35.2107L106.813 35.3388L107.173 35.9421L107.275 35.2471L107.028 35.2107ZM128.636 9.44529L128.837 9.59412L129.375 8.86688L128.54 9.21446L128.636 9.44529ZM121.726 31.1015L121.94 30.9723L121.726 31.1015ZM127.289 48.7004L127.04 48.7238L127.123 49.6104L127.514 48.8099L127.289 48.7004ZM158.879 31.1864L159.003 31.4035L159.789 30.9542L158.884 30.9365L158.879 31.1864ZM143.846 48.2378L143.598 48.2701L143.846 48.2378ZM143.031 62.6115L142.789 62.5502L142.617 63.2313L143.181 62.8121L143.031 62.6115ZM176.53 59.671L176.567 59.9183L177.462 59.7851L176.625 59.4399L176.53 59.671ZM156.331 70.0983L156.088 70.0384L156.331 70.0983ZM147.816 86.4814L147.624 86.3219L147.055 87.008L147.897 86.7177L147.816 86.4814ZM182.54 96.4338L182.474 96.675L183.348 96.913L182.72 96.2606L182.54 96.4338ZM159.853 97.861L160.051 98.0135L159.853 97.861ZM149.112 107.449L148.984 107.235L148.381 107.594L149.076 107.697L149.112 107.449ZM174.879 129.057L174.73 129.258L175.457 129.797L175.11 128.961L174.879 129.057ZM153.223 122.147L153.093 121.933L153.223 122.147ZM135.627 127.71L135.604 127.461L134.717 127.545L135.517 127.935L135.627 127.71ZM153.136 159.298L152.919 159.422L153.368 160.208L153.386 159.303L153.136 159.298ZM136.085 144.265L136.117 144.513L136.085 144.265ZM121.709 143.45L121.77 143.207L121.089 143.035L121.508 143.599L121.709 143.45ZM124.651 176.951L124.404 176.988L124.537 177.883L124.882 177.046L124.651 176.951ZM114.224 156.752L114.164 156.994L114.224 156.752ZM97.8442 148.239L98.0036 148.047L97.3178 147.479L97.6078 148.321L97.8442 148.239ZM87.8904 182.96L87.6492 182.894L87.4113 183.767L88.0637 183.14L87.8904 182.96ZM86.4633 160.273L86.3108 160.471L86.4633 160.273ZM76.8758 149.533L77.0905 149.405L76.7306 148.802L76.6285 149.497L76.8758 149.533ZM55.2681 175.299L55.0672 175.15L54.5283 175.877L55.3641 175.529L55.2681 175.299ZM62.1778 153.642L61.9638 153.772L61.9638 153.772L62.1778 153.642ZM56.6147 136.042L56.8636 136.019L56.7802 135.132L56.3899 135.933L56.6147 136.042ZM25.0248 153.556L24.9007 153.339L24.115 153.788L25.0199 153.806L25.0248 153.556ZM40.0578 136.504L40.3057 136.472L40.0578 136.504ZM40.8719 122.133L41.1143 122.194L41.2864 121.513L40.7227 121.932L40.8719 122.133ZM7.37351 125.073L7.33671 124.826L6.44145 124.959L7.27817 125.304L7.37351 125.073ZM27.5727 114.646L27.8154 114.706L27.5727 114.646ZM36.0853 98.2653L36.2778 98.4248L36.8459 97.7389L36.0039 98.0289L36.0853 98.2653ZM1.36356 88.3121L1.42928 88.0709L0.555994 87.8329L1.18335 88.4854L1.36356 88.3121ZM24.0506 86.8849L24.2487 87.0373L24.0506 86.8849ZM34.7912 77.2966L34.9193 77.5113L35.5226 77.1514L34.8275 77.0493L34.7912 77.2966ZM9.02472 55.6887L9.17355 55.4878L8.44631 54.949L8.79388 55.7847L9.02472 55.6887ZM30.681 62.5985L30.5517 62.3845L30.681 62.5985ZM48.28 57.0354L48.3034 57.2843L49.1899 57.201L48.3896 56.8107L48.28 57.0354ZM30.7677 25.4463L30.9848 25.3222L30.5355 24.5364L30.5178 25.4414L30.7677 25.4463ZM47.8191 40.4793L47.8513 40.7272L47.8191 40.4793ZM62.3934 41.1447C54.0755 29.9607 56.4038 15.3555 59.4834 7.89048L59.0212 7.6998C55.9105 15.2402 53.5234 30.0562 61.9922 41.443L62.3934 41.1447ZM59.005 7.83193C60.3648 16.9709 61.551 21.72 63.135 24.3567C63.9351 25.6885 64.8392 26.4873 65.9142 27.0396C66.9773 27.5858 68.2021 27.887 69.6197 28.2371L69.7396 27.7517C68.3071 27.3979 67.1438 27.1092 66.1427 26.5949C65.1536 26.0867 64.3176 25.3542 63.5636 24.0992C62.0396 21.5623 60.8621 16.9158 59.4996 7.75834L59.005 7.83193ZM69.6197 28.2371C73.205 29.1225 78.2536 30.3662 85.901 36.6999L86.2199 36.3148C78.4954 29.9172 73.3691 28.648 69.7396 27.7517L69.6197 28.2371ZM86.2968 36.4259C81.2425 21.7568 89.9593 7.9523 96.1865 1.96437L95.8399 1.60396C89.5548 7.64759 80.6761 21.6476 85.8241 36.5888L86.2968 36.4259ZM95.772 1.71845C93.3431 10.633 92.52 15.4584 92.9103 18.5094C93.1075 20.0505 93.6142 21.1454 94.3765 22.0833C95.1303 23.0108 96.1307 23.7789 97.2879 24.6693L97.5928 24.2731C96.4235 23.3733 95.4743 22.6413 94.7645 21.7679C94.0631 20.905 93.5921 19.8982 93.4063 18.446C93.0307 15.5104 93.8206 10.7825 96.2544 1.84989L95.772 1.71845ZM97.2879 24.6693C99.7799 26.5868 103.129 29.1625 106.813 35.3388L107.243 35.0827C103.512 28.8291 100.108 26.2083 97.5928 24.2731L97.2879 24.6693ZM107.275 35.2471C109.302 21.4578 121.276 12.777 128.732 9.67612L128.54 9.21446C121.008 12.3467 108.844 21.1349 106.781 35.1744L107.275 35.2471ZM128.435 9.29645C122.934 16.7202 120.415 20.9171 119.67 23.9016C119.294 25.4091 119.369 26.6132 119.739 27.7639C120.104 28.9019 120.757 29.9808 121.512 31.2308L121.94 30.9723C121.177 29.7093 120.559 28.6825 120.215 27.611C119.875 26.5523 119.801 25.4432 120.156 24.0226C120.872 21.1511 123.325 17.0329 128.837 9.59412L128.435 9.29645ZM121.512 31.2308C123.421 34.3917 126.111 38.8402 127.04 48.7238L127.538 48.677C126.599 38.6938 123.872 34.1722 121.94 30.9723L121.512 31.2308ZM127.514 48.8099C134.313 34.8645 150.237 31.2672 158.874 31.4364L158.884 30.9365C150.166 30.7657 133.99 34.3868 127.064 48.5908L127.514 48.8099ZM158.755 30.9694C150.734 35.5555 146.74 38.3855 144.858 40.8189C143.908 42.0481 143.492 43.1805 143.368 44.3827C143.245 45.5716 143.409 46.8221 143.598 48.2701L144.094 48.2055C143.903 46.7423 143.75 45.5536 143.865 44.4341C143.98 43.328 144.358 42.283 145.254 41.1247C147.064 38.7834 150.966 35.9988 159.003 31.4035L158.755 30.9694ZM143.598 48.2701C144.004 51.3881 144.551 55.5775 142.789 62.5502L143.274 62.6727C145.058 55.6129 144.504 51.3523 144.094 48.2055L143.598 48.2701ZM143.181 62.8121C154.365 54.4943 168.97 56.8225 176.435 59.9021L176.625 59.4399C169.085 56.3292 154.269 53.9422 142.882 62.4109L143.181 62.8121ZM176.493 59.4237C167.354 60.7835 162.605 61.9697 159.969 63.5538C158.637 64.3538 157.838 65.2579 157.286 66.333C156.739 67.396 156.438 68.6208 156.088 70.0384L156.574 70.1583C156.927 68.7258 157.216 67.5625 157.73 66.5615C158.239 65.5723 158.971 64.7363 160.226 63.9824C162.763 62.4583 167.409 61.2808 176.567 59.9183L176.493 59.4237ZM156.088 70.0384C155.203 73.624 153.959 78.6732 147.624 86.3219L148.009 86.6409C154.408 78.9151 155.677 73.7882 156.574 70.1583L156.088 70.0384ZM147.897 86.7177C162.567 81.6629 176.372 90.3798 182.36 96.6071L182.72 96.2606C176.677 89.9753 162.676 81.0964 147.735 86.245L147.897 86.7177ZM182.606 96.1926C173.691 93.7637 168.866 92.9406 165.815 93.331C164.274 93.5281 163.179 94.0348 162.241 94.7971C161.313 95.5509 160.545 96.5513 159.655 97.7085L160.051 98.0135C160.951 96.8441 161.683 95.8949 162.556 95.1851C163.419 94.4838 164.426 94.0127 165.878 93.8269C168.814 93.4513 173.542 94.2412 182.474 96.675L182.606 96.1926ZM159.655 97.7085C157.737 100.201 155.161 103.55 148.984 107.235L149.241 107.664C155.495 103.933 158.116 100.529 160.051 98.0135L159.655 97.7085ZM149.076 107.697C162.866 109.723 171.547 121.697 174.648 129.153L175.11 128.961C171.977 121.43 163.189 109.265 149.149 107.202L149.076 107.697ZM175.028 128.856C167.604 123.356 163.407 120.836 160.423 120.092C158.915 119.716 157.711 119.79 156.56 120.16C155.422 120.525 154.343 121.179 153.093 121.933L153.352 122.361C154.615 121.599 155.642 120.98 156.713 120.636C157.772 120.296 158.881 120.223 160.302 120.577C163.173 121.293 167.291 123.746 174.73 129.258L175.028 128.856ZM153.093 121.933C149.933 123.842 145.485 126.532 135.604 127.461L135.65 127.959C145.631 127.02 150.152 124.294 153.352 122.361L153.093 121.933ZM135.517 127.935C149.459 134.735 153.055 150.657 152.886 159.293L153.386 159.303C153.557 150.586 149.936 134.412 135.737 127.485L135.517 127.935ZM153.353 159.174C148.767 151.153 145.937 147.158 143.503 145.277C142.274 144.327 141.142 143.911 139.94 143.787C138.751 143.664 137.5 143.828 136.052 144.017L136.117 144.513C137.58 144.322 138.769 144.168 139.888 144.284C140.994 144.398 142.039 144.777 143.198 145.673C145.539 147.483 148.324 151.385 152.919 159.422L153.353 159.174ZM136.052 144.017C132.934 144.423 128.744 144.97 121.77 143.207L121.648 143.692C128.709 145.477 132.97 144.923 136.117 144.513L136.052 144.017ZM121.508 143.599C129.828 154.783 127.5 169.39 124.42 176.855L124.882 177.046C127.993 169.505 130.38 154.688 121.91 143.3L121.508 143.599ZM124.899 176.914C123.539 167.775 122.353 163.026 120.769 160.389C119.968 159.057 119.064 158.259 117.989 157.706C116.926 157.16 115.701 156.859 114.284 156.509L114.164 156.994C115.596 157.348 116.76 157.637 117.761 158.151C118.75 158.659 119.586 159.392 120.34 160.647C121.864 163.184 123.041 167.83 124.404 176.988L124.899 176.914ZM114.284 156.509C110.699 155.623 105.65 154.38 98.0036 148.047L97.6847 148.432C105.409 154.829 110.535 156.098 114.164 156.994L114.284 156.509ZM97.6078 148.321C102.66 162.989 93.944 176.792 87.7172 182.78L88.0637 183.14C94.3485 177.097 103.226 163.098 98.0805 148.158L97.6078 148.321ZM88.1316 183.025C90.5606 174.111 91.3837 169.286 90.9933 166.234C90.7961 164.693 90.2894 163.599 89.5272 162.661C88.7733 161.733 87.773 160.965 86.6157 160.075L86.3108 160.471C87.4802 161.371 88.4293 162.103 89.1391 162.976C89.8405 163.839 90.3115 164.846 90.4973 166.298C90.8729 169.233 90.083 173.961 87.6492 182.894L88.1316 183.025ZM86.6157 160.075C84.1238 158.157 80.7748 155.582 77.0905 149.405L76.6611 149.661C80.3915 155.915 83.7958 158.536 86.3108 160.471L86.6157 160.075ZM76.6285 149.497C74.6013 163.286 62.628 171.967 55.1721 175.068L55.3641 175.529C62.8953 172.397 75.0592 163.609 77.1231 149.57L76.6285 149.497ZM55.4689 175.447C60.9696 168.024 63.489 163.827 64.2333 160.842C64.6093 159.335 64.5349 158.131 64.1653 156.98C63.7998 155.842 63.1466 154.763 62.3918 153.513L61.9638 153.772C62.7265 155.035 63.345 156.061 63.6892 157.133C64.0293 158.192 64.1025 159.301 63.7482 160.721C63.032 163.593 60.579 167.711 55.0672 175.15L55.4689 175.447ZM62.3918 153.513C60.4829 150.352 57.7927 145.903 56.8636 136.019L56.3658 136.065C57.3043 146.05 60.0313 150.571 61.9638 153.772L62.3918 153.513ZM56.3899 135.933C49.5907 149.878 33.6668 153.475 25.0297 153.306L25.0199 153.806C33.7373 153.977 49.9141 150.355 56.8394 136.152L56.3899 135.933ZM25.1489 153.773C33.1699 149.187 37.164 146.357 39.0454 143.923C39.9957 142.694 40.4116 141.562 40.5358 140.36C40.6586 139.171 40.4943 137.92 40.3057 136.472L39.8099 136.537C40.0005 138 40.1541 139.189 40.0384 140.308C39.9241 141.414 39.5453 142.459 38.6498 143.617C36.8397 145.959 32.938 148.743 24.9007 153.339L25.1489 153.773ZM40.3057 136.472C39.8995 133.354 39.3527 129.166 41.1143 122.194L40.6295 122.071C38.8459 129.13 39.3999 133.39 39.8099 136.537L40.3057 136.472ZM40.7227 121.932C29.5388 130.25 14.9338 127.921 7.46885 124.842L7.27817 125.304C14.8185 128.415 29.6343 130.802 41.0211 122.333L40.7227 121.932ZM7.4103 125.32C16.5492 123.96 21.2984 122.774 23.9351 121.19C25.2669 120.39 26.0657 119.486 26.618 118.411C27.1642 117.348 27.4653 116.123 27.8154 114.706L27.33 114.586C26.9763 116.018 26.6876 117.181 26.1733 118.182C25.6651 119.172 24.9326 120.008 23.6776 120.762C21.1407 122.286 16.4941 123.463 7.33671 124.826L7.4103 125.32ZM27.8154 114.706C28.7009 111.12 29.9445 106.072 36.2778 98.4248L35.8927 98.1059C29.4956 105.83 28.2264 110.956 27.33 114.586L27.8154 114.706ZM36.0039 98.0289C21.3352 103.082 7.53149 94.3658 1.54376 88.1388L1.18335 88.4854C7.22678 94.7703 21.2261 103.649 36.1667 98.5017L36.0039 98.0289ZM1.29784 88.5533C10.2124 90.9822 15.0378 91.8053 18.0888 91.4149C19.6299 91.2178 20.7247 90.7111 21.6627 89.9488C22.5902 89.195 23.3583 88.1946 24.2487 87.0373L23.8525 86.7324C22.9527 87.9018 22.2207 88.851 21.3473 89.5608C20.4844 90.2621 19.4776 90.7332 18.0254 90.919C15.0898 91.2946 10.3619 90.5047 1.42928 88.0709L1.29784 88.5533ZM24.2487 87.0373C26.1663 84.5452 28.7421 81.196 34.9193 77.5113L34.6631 77.0819C28.4088 80.8126 25.7878 84.2173 23.8525 86.7324L24.2487 87.0373ZM34.8275 77.0493C21.0377 75.0227 12.3565 63.0489 9.25555 55.5927L8.79388 55.7847C11.9262 63.3162 20.7148 75.4806 34.7548 77.544L34.8275 77.0493ZM8.87588 55.8896C16.2996 61.3902 20.4966 63.9096 23.481 64.654C24.9885 65.03 26.1926 64.9555 27.3433 64.5859C28.4813 64.2204 29.5603 63.5673 30.8102 62.8125L30.5517 62.3845C29.2887 63.1472 28.262 63.7657 27.1904 64.1099C26.1317 64.4499 25.0226 64.5231 23.602 64.1689C20.7305 63.4527 16.6123 60.9996 9.17355 55.4878L8.87588 55.8896ZM30.8102 62.8125C33.9711 60.9036 38.4197 58.2136 48.3034 57.2843L48.2566 56.7865C38.2733 57.7251 33.7517 60.4521 30.5517 62.3845L30.8102 62.8125ZM48.3896 56.8107C34.4455 50.0111 30.8485 34.0879 31.0177 25.4512L30.5178 25.4414C30.347 34.1585 33.9678 50.3344 48.1704 57.2601L48.3896 56.8107ZM30.5507 25.5703C35.1368 33.5914 37.9668 37.5855 40.4002 39.4669C41.6294 40.4172 42.7618 40.833 43.964 40.9572C45.1529 41.08 46.4034 40.9158 47.8513 40.7272L47.7868 40.2314C46.3236 40.422 45.1349 40.5755 44.0154 40.4599C42.9093 40.3456 41.8643 39.9668 40.706 39.0713C38.3647 37.2611 35.5801 33.3594 30.9848 25.3222L30.5507 25.5703ZM47.8513 40.7272C50.9694 40.3209 55.1588 39.7741 62.1315 41.5362L62.254 41.0515C55.1942 39.2673 50.9336 39.8214 47.7868 40.2314L47.8513 40.7272Z" fill="#3E3E3E"/>
</svg>
